/* XPM */
static char * 1character_exit_xpm[] = {
"64 64 35 1",
" 	c None",
".	c #C8D45D",
"+	c #63AB3F",
"@	c #232222",
"#	c #505664",
"$	c #A60000",
"%	c #880101",
"&	c #3A3D46",
"*	c #000000",
"=	c #FFFFFF",
"-	c #C4CF5B",
";	c #302F2F",
">	c #3C3C3C",
",	c #393838",
"'	c #424242",
")	c #404040",
"!	c #585858",
"~	c #535353",
"{	c #454545",
"]	c #3E3E3E",
"^	c #565656",
"/	c #363535",
"(	c #474747",
"_	c #2B2C2F",
":	c #515151",
"<	c #575757",
"[	c #333232",
"}	c #69AD40",
"|	c #F80400",
"1	c #63AA3F",
"2	c #C3D25B",
"3	c #906867",
"4	c #A24861",
"5	c #4B4B4B",
"6	c #62AA3F",
"........................................++++++++................",
"........................................++++++++................",
"........................................++++++++................",
"........................................++++++++................",
"........................................................++++....",
"........................................................++++....",
"........................................................++++....",
"........................................................++++....",
"++++....................@@@@@@@@@@@@............++++....++++....",
"++++....................@@@@@@@@@@@@............++++....++++....",
"++++..................@@############@@..........++++....++++....",
"++++..................@@############@@..........++++....++++....",
"....................@@################@@............++++++++++++",
"....................@@####$$$$$$$$$$$$%%............++++++++++++",
"..................%%$$$$$$$$$$$$$$$$$$$$%%..........++++++++++++",
"..................%%$$$$$$$$############@@..........++++++++++++",
"............++++$$@@&&####################@@....................",
"............+++$$.@@&&####################@@....................",
"............+++$..@@&&###@@@@@@@@@@@@@@###@@....................",
"............++$$..@@&&###@************@###@@....................",
".............$$.+$@@&&###@**==******==@###@@....................",
"..............$.$$@@&&###@**==******==@###@@....................",
"................$+@@&&###@**==******==@###@@.-..................",
"...............$$+@@&&###@**==******==@###@@;...................",
".................;@@&&###@************@###@@>;;.++++............",
"................;,@@&&###@@@@@@@@@@@@@@###@@>>>;++++............",
"...............;')@@&&&&########@@######&&@@!>>~;+++............",
"..............;{]>@@&&&&########@@######&&@@!!>>^;++............",
".............;'^!>>>@@&&&&&&####@@####&&@@>>!!!>>^;+............",
"............;/)!!!>>@@&&&&&&####@@####&&@@>>>!!!>>;;............",
"............;(>>!!!>>>@@@@&&&&&&__&&&&@@!!!>>>!!!>>;............",
"............;:>>>!!!>>@@@@&&&&&&__&&&&@@>!!!>>>!!!>;............",
"........+++;;<!>>>@@@@&&&&&&####@@####&&@@@@!>>>!!!;;...........",
"........+++;;<!!>>@@@@&&&&&&####@@####&&@@@@!!>>>!!;;...........",
"........+++.[:!!@@&&&&##########@@######&&&&@@!>>>!;............",
"........+++.[>>!@@&&&&##########@@######&&&&@@!!>>>;............",
"++++....+++}[/>>@@&&###########@@@@#######&&@@!!!>;;............",
"++++....++++.['>@@&&##########@****@######&&@@>!!^;.............",
"++++....++++..[>@@###########@*|**|*@#######@@>>^;+1............",
"++++....++++.2.[@@########333@******@333####@@>);+++............",
"....++++++++++@@&&##########3@**44**@3######@@5;++++....++++....",
"....++++++++++@@&&########33#@******@#33####@@;+6+++....++++....",
"....++++++++++@@&&###########@******@#######&&@@++++....++++....",
"....++++++++++@@&&############@****@########&&@@++++....++++....",
"..............@@&&############@***@@########&&@@++++++++........",
"..............@@&&#############@**@#########&&@@++++++++........",
"..............@@&&############&@@@@&######&&&&@@++++++++........",
"..............@@&&############&&@@&&######&&&&@@++++++++........",
"............@@&&&&&&&&##&&##&&&&@@&&&&##&&&&&&@@................",
"............@@&&&&&&&&##&&##&&&&@@&&&&##&&&&&&@@................",
"............@@&&&&&&&&&&##&&&&@@@@@@&&&&&&&&&&@@................",
"............@@&&&&&&&&&&##&&&&@@**@@&&&&&&&&&&@@................",
"............@@&&@@&&&&&&&&&&@@****@@&&&&&&@@&&@@................",
"............@@&&@@&&&&&&&&&&@@****@@&&&&&&@@&&@@................",
"..............@@@@&&&&@@&&&&@@******@@&&&&&&@@..................",
"..............@@@@&&&&@@&&&&@@******@@&&&&&&@@..................",
"................@@@@@@..@@@@@@++..**@@@@@@@@++++................",
"................@@@@@@..@@@@@@++..**@@@@@@@@++++................",
"........................****++++....**......++++................",
"........................****++++....**......++++................",
"..........................**........**++....++++................",
"..........................**........**++....++++................",
"..........................**........**++....++++................",
"..........................**........**++....++++................"};
