/* XPM */
static char * 3catcharacter_xpm[] = {
"64 64 19 1",
" 	c None",
".	c #C8D45D",
"+	c #63AB3F",
"@	c #232222",
"#	c #505664",
"$	c #A60000",
"%	c #880101",
"&	c #3A3D46",
"*	c #000000",
"=	c #FFFFFF",
"-	c #2B2C2F",
";	c #6F4A4A",
">	c #674948",
",	c #906867",
"'	c #593F3E",
")	c #F80400",
"!	c #704B4B",
"~	c #432E2E",
"{	c #A24861",
"........................................++++++++................",
"........................................++++++++................",
"........................................++++++++................",
"........................................++++++++................",
"........................................................++++....",
"........................................................++++....",
"........................................................++++....",
"........................................................++++....",
"++++....................@@@@@@@@@@@@............++++....++++....",
"++++....................@@@@@@@@@@@@............++++....++++....",
"++++..................@@############@@..........++++....++++....",
"++++..................@@############@@..........++++....++++....",
"....................@@################@@............++++++++++++",
"....................@@####$$$$$$$$$$$$%%............++++++++++++",
"..................%%$$$$$$$$$$$$$$$$$$$$%%..........++++++++++++",
"..................%%$$$$$$$$############@@..........++++++++++++",
"............++++$$@@&&####################@@....................",
"............+++$$.@@&&####################@@....................",
"............+++$..@@&&###@@@@@@@@@@@@@@###@@....................",
"............++$$..@@&&###@************@###@@....................",
".............$$.+$@@&&###@**==******==@###@@....................",
"..............$.$$@@&&###@**==******==@###@@....................",
"................$+@@&&###@**==******==@###@@....................",
"...............$$+@@&&###@**==******==@###@@....................",
"..................@@&&###@************@###@@....++++............",
"..................@@&&###@@@@@@@@@@@@@@###@@....++++............",
"..................@@&&&&########@@######&&@@....++++............",
"..................@@&&&&########@@######&&@@....++++............",
"....................@@&&&&&&####@@####&&@@++++++................",
"....................@@&&&&&&####@@####&&@@++++++................",
"......................@@@@&&&&&&--&&&&@@++++++++................",
"......................@@@@&&&&&&--&&&&@@++++++++................",
"........++++..@@@@@@@@&&&&&&####@@####&&@@@@@@@@................",
"........++++..@@@@@@@@&&&&&&##@@@@@@##&&@@@@@@@@................",
"........++++@@&&&&&&&&#######@@****@@###&&&&&&&&@@..............",
"........++++@@&&&&&&&&######@@******@@##&&&&&&&&@@..............",
"++++....++++@@&&###########@@********@@#######&&@@++............",
"++++....++++@@&&##########@;*>******>*;@######&&@@++............",
"++++....++++@@##########,,@'*'*)**)*'*'@,,######@@++............",
"++++....++++@@############!*~~******~~*!########@@++............",
"....++++++@@&&##########,,!*****{{*****!,,######@@++....++++....",
"....++++++@@&&############@************@########@@++....++++....",
"....++++++@@&&############@**)******)**@########&&@@....++++....",
"....++++++@@&&############@****{**{****@########&&@@....++++....",
"..........@@&&############@****{**{****@########&&@@++++........",
"..........@@&&############@**)******)**@########&&@@++++........",
"..........@@&&############@@**********@@######&&&&@@++++........",
"..........@@&&#############@**********@#######&&&&@@++++........",
"........@@&&&&&&&&######&&#@,,******,,@#####&&&&&&@@............",
"........@@&&&&&&&&######&&#,@,@****@,@,#####&&&&&&@@............",
"........@@&&&&&&&&&&&&&&##&,&,@****@,&,&&&&&&&&&&&@@............",
"........@@&&&&&&&&&&&&&&##&&&&@****@&&&&&&&&&&&&&&@@............",
"........@@&&@@&&&&&&&&&&&&&&@@*****@&&&&&&&&&&@@&&@@............",
"........@@&&@@&&&&&&&&&&&&&&@@*****@&&&&&&&&&&@@&&@@............",
"..........@@@@&&&&&&&&&&&&&&@@******@@&&&&&&&&&&@@..............",
"..........@@@@&&&&&&&&&&&&&&@@******@@&&&&&&&&&&@@..............",
"............@@@@@@@@@@@@@@@@@@++..**@@@@@@@@@@@@................",
"............@@@@@@@@@@@@@@@@@@++..**@@@@@@@@@@@@................",
"........................****++++....**......++++................",
"........................****++++....**......++++................",
"..........................**........**++....++++................",
"..........................**........**++....++++................",
"..........................**........**++....++++................",
"..........................**........**++....++++................"};
