/* XPM */
static char * 3character_exit_xpm[] = {
"64 64 36 1",
" 	c None",
".	c #C8D45D",
"+	c #63AB3F",
"@	c #232222",
"#	c #505664",
"$	c #A60000",
"%	c #880101",
"&	c #3A3D46",
"*	c #000000",
"=	c #FFFFFF",
"-	c #C4CF5B",
";	c #302F2F",
">	c #3C3C3C",
",	c #393838",
"'	c #424242",
")	c #404040",
"!	c #585858",
"~	c #535353",
"{	c #454545",
"]	c #3E3E3E",
"^	c #565656",
"/	c #363535",
"(	c #474747",
"_	c #2B2C2F",
":	c #515151",
"<	c #575757",
"[	c #69AD40",
"}	c #6F4A4A",
"|	c #674948",
"1	c #906867",
"2	c #593F3E",
"3	c #F80400",
"4	c #63AA3F",
"5	c #704B4B",
"6	c #432E2E",
"7	c #A24861",
"........................................++++++++................",
"........................................++++++++................",
"........................................++++++++................",
"........................................++++++++................",
"........................................................++++....",
"........................................................++++....",
"........................................................++++....",
"........................................................++++....",
"++++....................@@@@@@@@@@@@............++++....++++....",
"++++....................@@@@@@@@@@@@............++++....++++....",
"++++..................@@############@@..........++++....++++....",
"++++..................@@############@@..........++++....++++....",
"....................@@################@@............++++++++++++",
"....................@@####$$$$$$$$$$$$%%............++++++++++++",
"..................%%$$$$$$$$$$$$$$$$$$$$%%..........++++++++++++",
"..................%%$$$$$$$$############@@..........++++++++++++",
"............++++$$@@&&####################@@....................",
"............+++$$.@@&&####################@@....................",
"............+++$..@@&&###@@@@@@@@@@@@@@###@@....................",
"............++$$..@@&&###@************@###@@....................",
".............$$.+$@@&&###@**==******==@###@@....................",
"..............$.$$@@&&###@**==******==@###@@....................",
"................$+@@&&###@**==******==@###@@.-..................",
"...............$$+@@&&###@**==******==@###@@;...................",
".................;@@&&###@************@###@@>;;.++++............",
"................;,@@&&###@@@@@@@@@@@@@@###@@>>>;++++............",
"...............;')@@&&&&########@@######&&@@!>>~;+++............",
"..............;{]>@@&&&&########@@######&&@@!!>>^;++............",
".............;'^!>>>@@&&&&&&####@@####&&@@>>!!!>>^;+............",
"............;/)!!!>>@@&&&&&&####@@####&&@@>>>!!!>>;;............",
"............;(>>!!!>>>@@@@&&&&&&__&&&&@@!!!>>>!!!>>;............",
"............;:>>>!!!>>@@@@&&&&&&__&&&&@@>!!!>>>!!!>;............",
"........+++;;<@@@@@@@@&&&&&&####@@####&&@@@@@@@@!!!;;...........",
"........+++;;<@@@@@@@@&&&&&&##@@@@@@##&&@@@@@@@@>!!;;...........",
"........+++.@@&&&&&&&&#######@@****@@###&&&&&&&&@@!;............",
"........+++.@@&&&&&&&&######@@******@@##&&&&&&&&@@>;............",
"++++....+++[@@&&###########@@********@@#######&&@@;;............",
"++++....++++@@&&##########@}*|******|*}@######&&@@;.............",
"++++....++++@@##########11@2*2*3**3*2*2@11######@@+4............",
"++++....++++@@############5*66******66*5########@@++............",
"....++++++@@&&##########115*****77*****511######@@++....++++....",
"....++++++@@&&############@************@########@@++....++++....",
"....++++++@@&&############@**3******3**@########&&@@....++++....",
"....++++++@@&&############@****7**7****@########&&@@....++++....",
"..........@@&&############@****7**7****@########&&@@++++........",
"..........@@&&############@**3******3**@########&&@@++++........",
"..........@@&&############@@**********@@######&&&&@@++++........",
"..........@@&&#############@**********@#######&&&&@@++++........",
"........@@&&&&&&&&######&&#@11******11@#####&&&&&&@@............",
"........@@&&&&&&&&######&&#1@1@****@1@1#####&&&&&&@@............",
"........@@&&&&&&&&&&&&&&##&1&1@****@1&1&&&&&&&&&&&@@............",
"........@@&&&&&&&&&&&&&&##&&&&@****@&&&&&&&&&&&&&&@@............",
"........@@&&@@&&&&&&&&&&&&&&@@*****@&&&&&&&&&&@@&&@@............",
"........@@&&@@&&&&&&&&&&&&&&@@*****@&&&&&&&&&&@@&&@@............",
"..........@@@@&&&&&&&&&&&&&&@@******@@&&&&&&&&&&@@..............",
"..........@@@@&&&&&&&&&&&&&&@@******@@&&&&&&&&&&@@..............",
"............@@@@@@@@@@@@@@@@@@++..**@@@@@@@@@@@@................",
"............@@@@@@@@@@@@@@@@@@++..**@@@@@@@@@@@@................",
"........................****++++....**......++++................",
"........................****++++....**......++++................",
"..........................**........**++....++++................",
"..........................**........**++....++++................",
"..........................**........**++....++++................",
"..........................**........**++....++++................"};
