/* XPM */
static char * exitclosed_xpm[] = {
"64 64 32 1",
" 	c None",
".	c #C8D45D",
"+	c #63AB3F",
"@	c #32312F",
"#	c #302F2F",
"$	c #333232",
"%	c #3E3D3D",
"&	c #464646",
"*	c #4C4C4C",
"=	c #505050",
"-	c #404040",
";	c #3E3E3E",
">	c #3C3C3C",
",	c #585858",
"'	c #575757",
")	c #565656",
"!	c #3D3D3D",
"~	c #C4CF5B",
"{	c #373737",
"]	c #454545",
"^	c #424242",
"/	c #393838",
"(	c #4B4B4B",
"_	c #535353",
":	c #363535",
"<	c #474747",
"[	c #515151",
"}	c #69AD40",
"|	c #63AA3F",
"1	c #C3D25B",
"2	c #62AA3F",
"3	c #545454",
"........................................++++++++................",
"........................................++++++++................",
"........................................++++++++................",
"........................................++++++++................",
"........................................................++++....",
"........................................................++++....",
"........................................................++++....",
"........................................................++++....",
"++++............................................++++....++++....",
"++++............................................++++....++++....",
"++++............................................++++....++++....",
"++++............................................++++....++++....",
"....................++++............................++++++++++++",
"....................++++............................++++++++++++",
"....................++++............................++++++++++++",
"....................++++............................++++++++++++",
"............++++....++++....++++................................",
"............++++....++++....++++................................",
"............++++....++++....++++................................",
"............++++....++++....++++................................",
"................++++++++.....++@@.......++++....................",
"................++++++++################++++....................",
"................+++++###$%&*=-;>,')-!;&####+.~..................",
"................+++##{]=>>>,,,>>>,,,>>>,,=]##...................",
".................##!^>,,,>>>,,,>>>,,,>>>,,,>>##.++++............",
"................#/(,>>>,,,>>>,,,>>>,,,>>>,,,>>>#++++............",
"...............#^-,,,>>>,,,>>>,,,>>>,,,>>>,,,>>_#+++............",
"..............#];>>,,,>>>,,,>>>,,,>>>,,,>>>,,,>>)#++............",
".............#^),>>>,,,>>>,,,>>>,,,>>>,,,>>>,,,>>)#+............",
"............#:-,,,>>>,,,>>>,,,>>>,,,>>>,,,>>>,,,>>##............",
"............#<>>,,,>>>,,,>>>,,,>>>,,,>>>,,,>>>,,,>>#............",
"............#[>>>,,,>>>,,,>>>,,,>>>,,,>>>,,,>>>,,,>#............",
"........+++##',>>>,,,>>>,,,>>>,,,>>>,,,>>>,,,>>>,,,##...........",
"........+++##',,>>>,,,>>>,,,>>>,,,>>>,,,>>>,,,>>>,,##...........",
"........+++.$[,,,>>>,,,>>>,,,>>>,,,>>>,,,>>>,,,>>>,#............",
"........+++.$>>,,,>>>,,,>>>,,,>>>,,,>>>,,,>>>,,,>>>#............",
"++++....+++}$:>>,,,>>>,,,>>>,,,>>>,,,>>>,,,>>>,,,>##............",
"++++....++++.$^>,,,,>>>,,,>>>,,,>>>,,,>>>,,,>>>,,)#.............",
"++++....++++..$>>>,,,>>>,,,>>>,,,>>>,,,>>>,,,>>>)#+|............",
"++++....++++.1.$^>>,,,>>>,,,>>>,,,>>>,,,>>>,,,>-#+++............",
"....++++++++++++$/>>,,,>>>,,,>>>,,,>>>,,,>>>,,(#++++....++++....",
"....++++++++++++.$$>>,,,>>>,,,>>>,,,>>>,,,>>*##+2+++....++++....",
"....++++++++++++...$${]=,>>>,,,>>>,,,>>>,=]{#+++++++....++++....",
"....++++++++++++.....$##$%^^=3)'>>)3=*&%$##.++++++++....++++....",
"........................#$$$$$$$$#######........++++++++........",
"...............................$$...............++++++++........",
"................................................++++++++........",
"................................................++++++++........",
"........................++++....................................",
"........................++++....................................",
"........................++++....................................",
"........................++++....................................",
"................++++....++++....++++............................",
"................++++....++++....++++............................",
"................++++....++++....++++............................",
"................++++....++++....++++............................",
"........................++++++++............++++................",
"........................++++++++............++++................",
"........................++++++++............++++................",
"........................++++++++............++++................",
"....................................++++....++++................",
"....................................++++....++++................",
"....................................++++....++++................",
"....................................++++....++++................"};
