/* XPM */
static char * manhole_xpm[] = {
"64 64 53 1",
" 	c None",
".	c #C8D45D",
"+	c #63AB3F",
"@	c #868686",
"#	c #A34E23",
"$	c #302F2F",
"%	c #2A2929",
"&	c #2F2E2E",
"*	c #232222",
"=	c #242323",
"-	c #292828",
";	c #2D2C2C",
">	c #91451D",
",	c #252424",
"'	c #282727",
")	c #2B2A2A",
"!	c #2E2D2D",
"~	c #853F1C",
"{	c #262525",
"]	c #2C2B2B",
"^	c #753819",
"/	c #212020",
"(	c #1C1B1B",
"_	c #201F1F",
":	c #4F2611",
"<	c #1B1A1A",
"[	c #1D1C1C",
"}	c #222121",
"|	c #3C3B3B",
"1	c #1E1D1D",
"2	c #1F1E1E",
"3	c #333232",
"4	c #3E3D3D",
"5	c #464646",
"6	c #4C4C4C",
"7	c #505050",
"8	c #404040",
"9	c #3E3E3E",
"0	c #3C3C3C",
"a	c #585858",
"b	c #575757",
"c	c #565656",
"d	c #3D3D3D",
"e	c #373737",
"f	c #454545",
"g	c #424242",
"h	c #393838",
"i	c #4B4B4B",
"j	c #535353",
"k	c #363535",
"l	c #474747",
"m	c #515151",
"n	c #545454",
"........................................++++++++................",
"........................................++++++++................",
"........................................++++++++................",
"........................................++++++++................",
"........................................................++++....",
"........................................................++++....",
"........................................................++++....",
"........................................................++++....",
"++++............................................++++....++++....",
"++++............................................++++....++++....",
"++++............................................++++....++++....",
"++++............................................++++....++++....",
"....................++++............................++++++++++++",
"....................++++............................++++++++++++",
"....................++++............................++++++++++++",
"....................++++............................++++++++++++",
"............++++....++++....++++................................",
"............++++....++++....++++................................",
"............++++....++++....++@@@@@.............................",
"............++++....++++@@@@@@@###@@@@@@@.......................",
"................+++++@@@$$$$$#######$$$$$@@@....................",
"................+++@@$$$$$$$$#$$$$$#$$$$$$$$@@..................",
"................++@$$$$$$$$$$#$$$$$#$$$$$$$$$$@.................",
"................@@$$$$$$$$$$$#######$$$$$$$$$$$@@...............",
"...............@$$$$$$$$$$$$$#$$$$$#$$$$$$$$$$$$$@++............",
"..............@$$$$$$$$$$$$$$#$$$$$#$$$$$$$$$$$$$$@+............",
".............@$$$$$$$$$$$$$$$#######$$$$$$$$$$$$$$$@............",
"............@$$$$$$$$$$$$$$$$#$$$$$#$$$$$$$$$$$$$$$$@...........",
"............@%&$$$$$$$$$$$$$$#$$$$$#$$$$$$$$$$$$$$&%@...........",
"...........@**=-;$$$$$$$$$$$$>>>>>>>$$$$$$$$$$$$;-=**@..........",
"...........@*****,')!$$$$$$$$~$$$$$~$$$$$$$$!)',*****@..........",
"...........@*********={'%];!&~$$$$$~&!;]%'{=*********@..........",
"........++@******************^^^^^^^******************@.........",
"........++@/*****************^*****^*****************/@.........",
"........+++@/****************^*****^****************/@..........",
"........+++@(_***************:::::::***************_(@..........",
"++++....+++@<<[/*************:*****:*************/[<<@..........",
"++++....++++@<<<[_}**********:*****:******|$|*}_[<<<@...........",
"++++....++++@<<<<<<[_/*******:::::::$$$$$$$$$$$$$$$<@...........",
"++++....++++.@<<<<<<<<<[12_/}:***$$$$$$$$$$$$$$$$$$$$$..........",
"....++++++++++@<<<<<<<<<<<<<<:$$$$$34567890abc8d9543$$$$$+++....",
"....+++++++++++@<<<<<<<<<<<<<$$$ef7000aaa000aaa000aa7fe$$$++....",
"....++++++++++++@@<<<<<<<<<$$$dg0aaa000aaa000aaa000aaa00d$$$....",
"....++++++++++++..@<<<<<<<$$hia000aaa000aaa000aaa000aaa000h$$...",
"...................@@<<<<$$g8aaa000aaa000aaa000aaa000aaa00jg$$..",
".....................@@@$$f900aaa000aaa000aaa000aaa000aaa00cf$$.",
"........................$gca000aaa000aaa000aaa000aaa000aaa00cg$.",
".......................$k8aaa000aaa000aaa000aaa000aaa000aaa00jk$",
".......................$l00aaa000aaa000aaa000aaa000aaa000aaa00l$",
".......................$m000aaa000aaa000aaa000aaa000aaa000aaa00$",
"......................9$ba000aaa000aaa000aaa000aaa000aaa000aaab$",
"......................9$baa000aaa000aaa000aaa000aaa000aaa000aab$",
"................++++...$maaa000aaa000aaa000aaa000aaa000aaa000am$",
"................++++...$00aaa000aaa000aaa000aaa000aaa000aaa000l$",
"................++++...$k00aaa000aaa000aaa000aaa000aaa000aaa08k$",
"................++++....$g0aaaa000aaa000aaa000aaa000aaa000aacg$.",
"........................$$000aaa000aaa000aaa000aaa000aaa000cf$$.",
"........................+$$g00aaa000aaa000aaa000aaa000aaa08g$$..",
"........................++$$h00aaa000aaa000aaa000aaa000aaih$$...",
"........................+++$$$00aaa000aaa000aaa000aaa006d$$$....",
".............................$$$ef7a000aaa000aaa000a7fe$$$......",
"..............................$$$$$34gg7ncb00cn76543$$$$$.......",
".................................$$$$$$$$$$$$$$$$$$$$$..........",
"....................................$$$$$$$$$$$$$$$............."};
