/* XPM */
static char * grass_xpm[] = {
"64 64 3 1",
" 	c None",
".	c #C8D45D",
"+	c #63AB3F",
"........................................++++++++................",
"........................................++++++++................",
"........................................++++++++................",
"........................................++++++++................",
"........................................................++++....",
"........................................................++++....",
"........................................................++++....",
"........................................................++++....",
"++++............................................++++....++++....",
"++++............................................++++....++++....",
"++++............................................++++....++++....",
"++++............................................++++....++++....",
"....................++++............................++++++++++++",
"....................++++............................++++++++++++",
"....................++++............................++++++++++++",
"....................++++............................++++++++++++",
"............++++....++++....++++................................",
"............++++....++++....++++................................",
"............++++....++++....++++................................",
"............++++....++++....++++................................",
"................++++++++................++++....................",
"................++++++++................++++....................",
"................++++++++................++++....................",
"................++++++++................++++....................",
"................................++++....++++....++++............",
"................................++++....++++....++++............",
"................................++++....++++....++++............",
"................................++++....++++....++++............",
"....................................++++++++++++................",
"....................................++++++++++++................",
"....................................++++++++++++................",
"....................................++++++++++++................",
"........++++....................................................",
"........++++....................................................",
"........++++....................................................",
"........++++....................................................",
"++++....++++....++++............................++++............",
"++++....++++....++++............................++++............",
"++++....++++....++++............................++++............",
"++++....++++....++++............................++++............",
"....++++++++++++............................++++++++....++++....",
"....++++++++++++............................++++++++....++++....",
"....++++++++++++............................++++++++....++++....",
"....++++++++++++............................++++++++....++++....",
"................................................++++++++........",
"................................................++++++++........",
"................................................++++++++........",
"................................................++++++++........",
"........................++++....................................",
"........................++++....................................",
"........................++++....................................",
"........................++++....................................",
"................++++....++++....++++............................",
"................++++....++++....++++............................",
"................++++....++++....++++............................",
"................++++....++++....++++............................",
"........................++++++++............++++................",
"........................++++++++............++++................",
"........................++++++++............++++................",
"........................++++++++............++++................",
"....................................++++....++++................",
"....................................++++....++++................",
"....................................++++....++++................",
"....................................++++....++++................"};
