/* XPM */
static char * wall_xpm[] = {
"64 64 7 1",
" 	c None",
".	c #C8D45D",
"+	c #63AB3F",
"@	c #2C354D",
"#	c #A3A7C2",
"$	c #404973",
"%	c #686F99",
"........................................++++++++................",
"........................................++++++++................",
"........................................++++++++................",
"........................................++++++++................",
"................................@@@@@@@@@@@@@@@@........++++....",
"................................@@@@@@@@@@@@@@@@........++++....",
"................................@@@@@@@@@@@@@@@@........++++....",
"................................@@@@@@@@@@@@@@@@........++++....",
"++++................@@@@@@@@@@@@################@@@@....++++....",
"++++................@@@@@@@@@@@@################@@@@....++++....",
"++++................@@@@@@@@@@@@################@@@@....++++....",
"++++................@@@@@@@@@@@@################@@@@....++++....",
"................@@@@############################$$$$@@@@++++++++",
"................@@@@############################$$$$@@@@++++++++",
"................@@@@############################$$$$@@@@++++++++",
"................@@@@############################$$$$@@@@++++++++",
"............@@@@%%%%%%%%####################$$$$$$$$@@@@........",
"............@@@@%%%%%%%%####################$$$$$$$$@@@@........",
"............@@@@%%%%%%%%####################$$$$$$$$@@@@........",
"............@@@@%%%%%%%%####################$$$$$$$$@@@@........",
"............@@@@%%%%%%%%%%%%%%%%########$$$$$$$$$$$$@@@@........",
"............@@@@%%%%%%%%%%%%%%%%########$$$$$$$$$$$$@@@@........",
"............@@@@%%%%%%%%%%%%%%%%########$$$$$$$$$$$$@@@@........",
"............@@@@%%%%%%%%%%%%%%%%########$$$$$$$$$$$$@@@@........",
"........@@@@%%%%%%%%%%%%%%%%%%%%%%%%$$$$$$$$$$$$$$$$@@@@........",
"........@@@@%%%%%%%%%%%%%%%%%%%%%%%%$$$$$$$$$$$$$$$$@@@@........",
"........@@@@%%%%%%%%%%%%%%%%%%%%%%%%$$$$$$$$$$$$$$$$@@@@........",
"........@@@@%%%%%%%%%%%%%%%%%%%%%%%%$$$$$$$$$$$$$$$$@@@@........",
"........@@@@%%%%%%%%%%%%$$$$%%%%%%%%$$$$$$$$$$$$$$$$$$$$@@@@....",
"........@@@@%%%%%%%%%%%%$$$$%%%%%%%%$$$$$$$$$$$$$$$$$$$$@@@@....",
"........@@@@%%%%%%%%%%%%$$$$%%%%%%%%$$$$$$$$$$$$$$$$$$$$@@@@....",
"........@@@@%%%%%%%%%%%%$$$$%%%%%%%%$$$$$$$$$$$$$$$$$$$$@@@@....",
"....@@@@%%%%%%%%%%%%%%%%%%%%%%%%%%%%$$$$$$$$$$$$$$$$$$$$@@@@....",
"....@@@@%%%%%%%%%%%%%%%%%%%%%%%%%%%%$$$$$$$$$$$$$$$$$$$$@@@@....",
"....@@@@%%%%%%%%%%%%%%%%%%%%%%%%%%%%$$$$$$$$$$$$$$$$$$$$@@@@....",
"....@@@@%%%%%%%%%%%%%%%%%%%%%%%%%%%%$$$$$$$$$$$$$$$$$$$$@@@@....",
"++++@@@@%%%%%%%%%%%%%%%%%%%%%%%%%%%%%%%%$$$$$$$$$$$$$$$$@@@@....",
"++++@@@@%%%%%%%%%%%%%%%%%%%%%%%%%%%%%%%%$$$$$$$$$$$$$$$$@@@@....",
"++++@@@@%%%%%%%%%%%%%%%%%%%%%%%%%%%%%%%%$$$$$$$$$$$$$$$$@@@@....",
"++++@@@@%%%%%%%%%%%%%%%%%%%%%%%%%%%%%%%%$$$$$$$$$$$$$$$$@@@@....",
"@@@@%%%%%%%%$$$$%%%%%%%%$$$$$$$$%%%%%%%%$$$$$$$$$$$$$$$$@@@@....",
"@@@@%%%%%%%%$$$$%%%%%%%%$$$$$$$$%%%%%%%%$$$$$$$$$$$$$$$$@@@@....",
"@@@@%%%%%%%%$$$$%%%%%%%%$$$$$$$$%%%%%%%%$$$$$$$$$$$$$$$$@@@@....",
"@@@@%%%%%%%%$$$$%%%%%%%%$$$$$$$$%%%%%%%%$$$$$$$$$$$$$$$$@@@@....",
"....@@@@@@@@%%%%%%%%%%%%%%%%$$$$%%%%%%%%$$$$$$$$$$$$@@@@........",
"....@@@@@@@@%%%%%%%%%%%%%%%%$$$$%%%%%%%%$$$$$$$$$$$$@@@@........",
"....@@@@@@@@%%%%%%%%%%%%%%%%$$$$%%%%%%%%$$$$$$$$$$$$@@@@........",
"....@@@@@@@@%%%%%%%%%%%%%%%%$$$$%%%%%%%%$$$$$$$$$$$$@@@@........",
"............@@@@%%%%%%%%%%%%%%%%%%%%%%%%$$$$$$$$@@@@............",
"............@@@@%%%%%%%%%%%%%%%%%%%%%%%%$$$$$$$$@@@@............",
"............@@@@%%%%%%%%%%%%%%%%%%%%%%%%$$$$$$$$@@@@............",
"............@@@@%%%%%%%%%%%%%%%%%%%%%%%%$$$$$$$$@@@@............",
"................@@@@%%%%%%%%%%%%%%%%%%%%$$$$@@@@................",
"................@@@@%%%%%%%%%%%%%%%%%%%%$$$$@@@@................",
"................@@@@%%%%%%%%%%%%%%%%%%%%$$$$@@@@................",
"................@@@@%%%%%%%%%%%%%%%%%%%%$$$$@@@@................",
"....................@@@@@@@@%%%%%%%%%%%%@@@@++++................",
"....................@@@@@@@@%%%%%%%%%%%%@@@@++++................",
"....................@@@@@@@@%%%%%%%%%%%%@@@@++++................",
"....................@@@@@@@@%%%%%%%%%%%%@@@@++++................",
"............................@@@@@@@@@@@@....++++................",
"............................@@@@@@@@@@@@....++++................",
"............................@@@@@@@@@@@@....++++................",
"............................@@@@@@@@@@@@....++++................"};
